<?xml version="1.0" encoding="UTF-8"?>
<!DOCTYPE svg PUBLIC "-//W3C//DTD SVG 1.1//EN" "http://www.w3.org/Graphics/SVG/1.1/DTD/svg11.dtd">
<svg xmlns="http://www.w3.org/2000/svg" version="1.1" width="64px" height="64px" style="shape-rendering:geometricPrecision; text-rendering:geometricPrecision; image-rendering:optimizeQuality; fill-rule:evenodd; clip-rule:evenodd" xmlns:xlink="http://www.w3.org/1999/xlink">
<g><path style="opacity:0.946" fill="#3fa36b" d="M 34.5,-0.5 C 36.8333,-0.5 39.1667,-0.5 41.5,-0.5C 44.9778,3.02224 45.3112,6.85557 42.5,11C 48.8246,11.4995 55.1579,11.6662 61.5,11.5C 60.0033,26.1177 59.3366,40.7843 59.5,55.5C 41.5,55.5 23.5,55.5 5.5,55.5C 5.66341,40.7843 4.99674,26.1177 3.5,11.5C 9.84209,11.6662 16.1754,11.4995 22.5,11C 20.4548,3.79024 23.1214,1.12357 30.5,3C 31.1258,3.75044 31.6258,4.58377 32,5.5C 32.5725,3.35943 33.4058,1.35943 34.5,-0.5 Z M 36.5,2.5 C 41.7541,2.37353 43.0874,4.37353 40.5,8.5C 34.2309,10.9706 32.8976,8.9706 36.5,2.5 Z M 29.5,10.5 C 26.4758,10.6358 24.9758,9.30248 25,6.5C 28.6693,4.99074 30.1693,6.32407 29.5,10.5 Z M 6.5,13.5 C 14.8333,13.5 23.1667,13.5 31.5,13.5C 31.5,16.1667 31.5,18.8333 31.5,21.5C 23.16,21.6664 14.8267,21.4997 6.5,21C 5.22147,18.5024 5.22147,16.0024 6.5,13.5 Z M 33.5,13.5 C 41.84,13.3336 50.1733,13.5003 58.5,14C 59.8333,16.3333 59.8333,18.6667 58.5,21C 53.4671,21.171 48.4671,21.671 43.5,22.5C 48.1196,23.4933 52.7863,23.8266 57.5,23.5C 57.6665,33.1724 57.4998,42.8391 57,52.5C 48.909,53.1594 40.7424,53.4927 32.5,53.5C 24.2576,53.4927 16.091,53.1594 8,52.5C 7.5002,42.8391 7.33353,33.1724 7.5,23.5C 15.5,23.5 23.5,23.5 31.5,23.5C 31.1694,30.8635 31.5027,38.1968 32.5,45.5C 33.4987,34.8541 33.832,24.1874 33.5,13.5 Z"/></g>
<g><path style="opacity:0.929" fill="#3fa36b" d="M 35.5,21.5 C 37.604,21.2011 39.604,21.5344 41.5,22.5C 40.5,22.8333 39.5,23.1667 38.5,23.5C 36.9704,23.3601 35.9704,22.6935 35.5,21.5 Z"/></g>
<g><path style="opacity:0.893" fill="#3fa36b" d="M 11.5,47.5 C 12.5862,47.62 13.2528,48.2867 13.5,49.5C 13.1667,50.1667 12.8333,50.8333 12.5,51.5C 11.5713,50.3112 11.238,48.9778 11.5,47.5 Z"/></g>
<g><path style="opacity:0.893" fill="#3fa36b" d="M 16.5,47.5 C 17.5862,47.62 18.2528,48.2867 18.5,49.5C 18.1667,50.1667 17.8333,50.8333 17.5,51.5C 16.5713,50.3112 16.238,48.9778 16.5,47.5 Z"/></g>
<g><path style="opacity:0.893" fill="#3fa36b" d="M 21.5,47.5 C 22.5862,47.62 23.2528,48.2867 23.5,49.5C 23.1667,50.1667 22.8333,50.8333 22.5,51.5C 21.5713,50.3112 21.238,48.9778 21.5,47.5 Z"/></g>
<g><path style="opacity:0.893" fill="#3fa36b" d="M 26.5,47.5 C 27.5862,47.62 28.2528,48.2867 28.5,49.5C 28.1667,50.1667 27.8333,50.8333 27.5,51.5C 26.5713,50.3112 26.238,48.9778 26.5,47.5 Z"/></g>
<g><path style="opacity:0.893" fill="#3fa36b" d="M 31.5,47.5 C 32.5862,47.62 33.2528,48.2867 33.5,49.5C 33.1667,50.1667 32.8333,50.8333 32.5,51.5C 31.5713,50.3112 31.238,48.9778 31.5,47.5 Z"/></g>
<g><path style="opacity:0.893" fill="#3fa36b" d="M 36.5,47.5 C 37.5862,47.62 38.2528,48.2867 38.5,49.5C 38.1667,50.1667 37.8333,50.8333 37.5,51.5C 36.5713,50.3112 36.238,48.9778 36.5,47.5 Z"/></g>
<g><path style="opacity:0.893" fill="#3fa36b" d="M 41.5,47.5 C 42.5862,47.62 43.2528,48.2867 43.5,49.5C 43.1667,50.1667 42.8333,50.8333 42.5,51.5C 41.5713,50.3112 41.238,48.9778 41.5,47.5 Z"/></g>
<g><path style="opacity:0.893" fill="#3fa36b" d="M 46.5,47.5 C 47.5862,47.62 48.2528,48.2867 48.5,49.5C 48.1667,50.1667 47.8333,50.8333 47.5,51.5C 46.5713,50.3112 46.238,48.9778 46.5,47.5 Z"/></g>
<g><path style="opacity:0.893" fill="#3fa36b" d="M 51.5,47.5 C 52.5862,47.62 53.2528,48.2867 53.5,49.5C 53.1667,50.1667 52.8333,50.8333 52.5,51.5C 51.5713,50.3112 51.238,48.9778 51.5,47.5 Z"/></g>
</svg>
