<?xml version="1.0" encoding="UTF-8"?>
<!DOCTYPE svg PUBLIC "-//W3C//DTD SVG 1.1//EN" "http://www.w3.org/Graphics/SVG/1.1/DTD/svg11.dtd">
<svg xmlns="http://www.w3.org/2000/svg" version="1.1" width="96px" height="96px" style="shape-rendering:geometricPrecision; text-rendering:geometricPrecision; image-rendering:optimizeQuality; fill-rule:evenodd; clip-rule:evenodd" xmlns:xlink="http://www.w3.org/1999/xlink">
<g><path style="opacity:1" fill="#40a46b" d="M 23.5,-0.5 C 39.5,-0.5 55.5,-0.5 71.5,-0.5C 71.5,31.5 71.5,63.5 71.5,95.5C 55.5,95.5 39.5,95.5 23.5,95.5C 23.5,63.5 23.5,31.5 23.5,-0.5 Z M 29.5,5.5 C 41.5,5.5 53.5,5.5 65.5,5.5C 65.5,8.5 65.5,11.5 65.5,14.5C 58.5,14.5 51.5,14.5 44.5,14.5C 44.5,16.5 44.5,18.5 44.5,20.5C 51.5,20.5 58.5,20.5 65.5,20.5C 65.5,22.5 65.5,24.5 65.5,26.5C 61.5,26.5 57.5,26.5 53.5,26.5C 53.5,28.5 53.5,30.5 53.5,32.5C 57.5,32.5 61.5,32.5 65.5,32.5C 65.5,34.5 65.5,36.5 65.5,38.5C 58.5,38.5 51.5,38.5 44.5,38.5C 44.5,40.5 44.5,42.5 44.5,44.5C 51.5,44.5 58.5,44.5 65.5,44.5C 65.5,46.5 65.5,48.5 65.5,50.5C 61.5,50.5 57.5,50.5 53.5,50.5C 53.5,52.5 53.5,54.5 53.5,56.5C 57.5,56.5 61.5,56.5 65.5,56.5C 65.5,58.5 65.5,60.5 65.5,62.5C 58.5,62.5 51.5,62.5 44.5,62.5C 44.5,64.5 44.5,66.5 44.5,68.5C 51.5,68.5 58.5,68.5 65.5,68.5C 65.5,70.5 65.5,72.5 65.5,74.5C 61.5,74.5 57.5,74.5 53.5,74.5C 53.5,76.5 53.5,78.5 53.5,80.5C 57.5,80.5 61.5,80.5 65.5,80.5C 65.5,83.5 65.5,86.5 65.5,89.5C 53.5,89.5 41.5,89.5 29.5,89.5C 29.5,61.5 29.5,33.5 29.5,5.5 Z"/></g>
</svg>
