<?xml version="1.0" encoding="UTF-8"?>
<!DOCTYPE svg PUBLIC "-//W3C//DTD SVG 1.1//EN" "http://www.w3.org/Graphics/SVG/1.1/DTD/svg11.dtd">
<svg xmlns="http://www.w3.org/2000/svg" version="1.1" width="100px" height="100px" style="shape-rendering:geometricPrecision; text-rendering:geometricPrecision; image-rendering:optimizeQuality; fill-rule:evenodd; clip-rule:evenodd" xmlns:xlink="http://www.w3.org/1999/xlink">
<g><path style="opacity:0.778" fill="#3fa46b" d="M 33.5,11.5 C 35.0174,11.5106 36.1841,12.1772 37,13.5C 42.1137,21.3929 46.447,29.7262 50,38.5C 62.5668,31.4201 76.0668,28.7534 90.5,30.5C 92.1315,46.9758 88.2981,61.9758 79,75.5C 70.5799,82.5261 61.0799,84.3594 50.5,81C 47.8268,79.9986 45.4935,78.4986 43.5,76.5C 39.7568,79.9863 37.5902,84.3196 37,89.5C 35.9887,90.3366 34.8221,90.67 33.5,90.5C 31.0546,83.7172 29.7213,76.7172 29.5,69.5C 23.2829,69.4618 19.1162,66.4618 17,60.5C 13.6,47.9216 15.6,36.2549 23,25.5C 26.332,20.6734 29.832,16.0067 33.5,11.5 Z M 33.5,16.5 C 41.9177,25.3521 46.5844,36.0188 47.5,48.5C 48.0518,59.94 42.7185,65.94 31.5,66.5C 31.2114,63.3508 31.7114,60.3508 33,57.5C 35.414,55.7093 37.914,54.0426 40.5,52.5C 37.2724,51.8409 34.4391,52.8409 32,55.5C 31.5467,47.9523 32.0467,40.4523 33.5,33C 33.1667,31.8333 32.8333,30.6667 32.5,29.5C 31.5,34.1667 30.5,38.8333 29.5,43.5C 28.3914,42.4104 27.3914,42.4104 26.5,43.5C 27.5312,44.7003 28.3645,46.0337 29,47.5C 29.4995,53.8246 29.6662,60.1579 29.5,66.5C 24.5115,66.6823 21.3448,64.349 20,59.5C 16.9121,48.4262 18.5788,38.0929 25,28.5C 28.0887,24.6464 30.922,20.6464 33.5,16.5 Z M 71.5,33.5 C 76.8333,33.5 82.1667,33.5 87.5,33.5C 88.2165,45.8721 85.7165,57.5387 80,68.5C 72.9823,78.8393 63.4823,82.006 51.5,78C 44.6025,75.2592 43.9359,71.5926 49.5,67C 52.1209,66.0615 54.7875,65.2281 57.5,64.5C 55.9223,63.7022 54.2556,63.2022 52.5,63C 60.4164,55.2429 68.7498,48.0763 77.5,41.5C 77,41.1667 76.5,40.8333 76,40.5C 71.1744,43.5824 66.5077,46.9157 62,50.5C 61.8949,46.63 61.0615,42.9634 59.5,39.5C 59.3783,44.0753 59.2116,48.742 59,53.5C 53.2561,58.5731 48.2561,64.2398 44,70.5C 43.3076,69.9747 42.8076,69.3081 42.5,68.5C 49.7231,60.994 52.5564,51.994 51,41.5C 57.5512,37.7961 64.3845,35.1294 71.5,33.5 Z M 32.5,69.5 C 36.2807,68.7886 39.2807,69.9553 41.5,73C 38.7069,76.0808 36.5403,79.5808 35,83.5C 33.2079,78.9996 32.3746,74.3329 32.5,69.5 Z"/></g>
<g><path style="opacity:0.622" fill="#41a16a" d="M 21.5,40.5 C 22.675,40.281 23.675,40.6143 24.5,41.5C 22.9483,42.7979 21.9483,42.4646 21.5,40.5 Z"/></g>
<g><path style="opacity:0.576" fill="#40a16b" d="M 58.5,64.5 C 60.0348,63.2121 61.7015,63.2121 63.5,64.5C 61.8327,65.6664 60.166,65.6664 58.5,64.5 Z"/></g>
<g><path style="opacity:0.804" fill="#3fa36b" d="M 64.5,63.5 C 65.675,63.281 66.675,63.6143 67.5,64.5C 65.9483,65.7979 64.9483,65.4646 64.5,63.5 Z"/></g>
</svg>
