<?xml version="1.0" encoding="UTF-8"?>
<!DOCTYPE svg PUBLIC "-//W3C//DTD SVG 1.1//EN" "http://www.w3.org/Graphics/SVG/1.1/DTD/svg11.dtd">
<svg xmlns="http://www.w3.org/2000/svg" version="1.1" width="100px" height="100px" style="shape-rendering:geometricPrecision; text-rendering:geometricPrecision; image-rendering:optimizeQuality; fill-rule:evenodd; clip-rule:evenodd" xmlns:xlink="http://www.w3.org/1999/xlink">
<g><path style="opacity:0.886" fill="#3fa36b" d="M 39.5,3.5 C 67.9223,0.452161 86.4223,12.4522 95,39.5C 98.5361,67.9428 86.7027,86.4428 59.5,95C 31.0572,98.5361 12.5572,86.7027 4,59.5C 0.672469,31.0314 12.5058,12.3647 39.5,3.5 Z M 40.5,8.5 C 65.6258,5.97201 82.1258,16.6387 90,40.5C 92.994,65.6944 82.494,82.1944 58.5,90C 33.3056,92.994 16.8056,82.494 9,58.5C 6.127,33.2191 16.627,16.5524 40.5,8.5 Z"/></g>
<g><path style="opacity:0.872" fill="#40a46b" d="M 67.5,29.5 C 68.8333,29.5 70.1667,29.5 71.5,29.5C 71.6602,31.1992 71.4935,32.8659 71,34.5C 63.3333,45.5 55.6667,56.5 48,67.5C 42.1911,61.602 36.1911,55.9353 30,50.5C 29.1163,48.3594 29.6163,46.6927 31.5,45.5C 37.1147,49.6118 42.2813,54.2785 47,59.5C 54.0905,49.6447 60.9238,39.6447 67.5,29.5 Z"/></g>
</svg>
