<?xml version="1.0" encoding="UTF-8"?>
<!DOCTYPE svg PUBLIC "-//W3C//DTD SVG 1.1//EN" "http://www.w3.org/Graphics/SVG/1.1/DTD/svg11.dtd">
<svg xmlns="http://www.w3.org/2000/svg" version="1.1" width="100px" height="100px" style="shape-rendering:geometricPrecision; text-rendering:geometricPrecision; image-rendering:optimizeQuality; fill-rule:evenodd; clip-rule:evenodd" xmlns:xlink="http://www.w3.org/1999/xlink">
<g><path style="opacity:0.887" fill="#40a46b" d="M 32.5,7.5 C 34.1667,7.5 35.8333,7.5 37.5,7.5C 37.1131,23.9383 30.6131,37.2716 18,47.5C 16.5432,50.366 16.2099,53.366 17,56.5C 17.5,58.3333 18.6667,59.5 20.5,60C 24.8333,61 29.1667,62 33.5,63C 37.1667,66 40.8333,69 44.5,72C 47.8333,72.6667 51.1667,72.6667 54.5,72C 58.1667,69 61.8333,66 65.5,63C 69.8333,62 74.1667,61 78.5,60C 82.2115,57.487 83.3782,53.987 82,49.5C 69.0176,38.5346 62.1843,24.5346 61.5,7.5C 63.1667,7.5 64.8333,7.5 66.5,7.5C 67.4157,17.0814 70.249,26.0814 75,34.5C 79.3679,38.533 83.3679,42.8663 87,47.5C 89.031,60.8111 83.1976,67.3111 69.5,67C 65.5897,68.9066 62.2564,71.5733 59.5,75C 52.8333,78.3333 46.1667,78.3333 39.5,75C 33.5,67.9349 25.8333,64.2682 16.5,64C 11.7409,59.5092 10.2409,54.0092 12,47.5C 15.6321,42.8663 19.6321,38.533 24,34.5C 28.751,26.0814 31.5843,17.0814 32.5,7.5 Z"/></g>
<g><path style="opacity:0.907" fill="#3fa36b" d="M 28.5,74.5 C 31.8991,76.3883 34.8991,78.8883 37.5,82C 36.3333,83.1667 35.1667,84.3333 34,85.5C 33.3333,84.8333 32.6667,84.1667 32,83.5C 31.5026,86.146 31.3359,88.8127 31.5,91.5C 30.1667,91.5 28.8333,91.5 27.5,91.5C 27.6641,88.8127 27.4974,86.146 27,83.5C 26.3333,84.1667 25.6667,84.8333 25,85.5C 23.8333,84.3333 22.6667,83.1667 21.5,82C 24.0386,79.6303 26.3719,77.1303 28.5,74.5 Z"/></g>
<g><path style="opacity:0.907" fill="#3fa36b" d="M 68.5,74.5 C 71.8991,76.3883 74.8991,78.8883 77.5,82C 76.3333,83.1667 75.1667,84.3333 74,85.5C 73.3333,84.8333 72.6667,84.1667 72,83.5C 71.5026,86.146 71.3359,88.8127 71.5,91.5C 70.1667,91.5 68.8333,91.5 67.5,91.5C 67.6641,88.8127 67.4974,86.146 67,83.5C 66.3333,84.1667 65.6667,84.8333 65,85.5C 63.8333,84.3333 62.6667,83.1667 61.5,82C 64.0386,79.6303 66.3719,77.1303 68.5,74.5 Z"/></g>
</svg>
