<?xml version="1.0" encoding="UTF-8"?>
<!DOCTYPE svg PUBLIC "-//W3C//DTD SVG 1.1//EN" "http://www.w3.org/Graphics/SVG/1.1/DTD/svg11.dtd">
<svg xmlns="http://www.w3.org/2000/svg" version="1.1" width="64px" height="64px" style="shape-rendering:geometricPrecision; text-rendering:geometricPrecision; image-rendering:optimizeQuality; fill-rule:evenodd; clip-rule:evenodd" xmlns:xlink="http://www.w3.org/1999/xlink">
<g><path style="opacity:0.818" fill="#3fa36b" d="M 20.5,0.5 C 27.8333,0.5 35.1667,0.5 42.5,0.5C 42.5,7.16667 42.5,13.8333 42.5,20.5C 49.1667,20.5 55.8333,20.5 62.5,20.5C 62.5,27.8333 62.5,35.1667 62.5,42.5C 55.8333,42.5 49.1667,42.5 42.5,42.5C 42.5,49.1667 42.5,55.8333 42.5,62.5C 35.1667,62.5 27.8333,62.5 20.5,62.5C 20.5,55.8333 20.5,49.1667 20.5,42.5C 13.8333,42.5 7.16667,42.5 0.5,42.5C 0.5,35.1667 0.5,27.8333 0.5,20.5C 7.16667,20.5 13.8333,20.5 20.5,20.5C 20.5,13.8333 20.5,7.16667 20.5,0.5 Z M 24.5,3.5 C 29.1667,3.5 33.8333,3.5 38.5,3.5C 38.5,10.5 38.5,17.5 38.5,24.5C 45.5,24.5 52.5,24.5 59.5,24.5C 59.5,29.1667 59.5,33.8333 59.5,38.5C 52.5,38.5 45.5,38.5 38.5,38.5C 38.5,45.5 38.5,52.5 38.5,59.5C 33.8333,59.5 29.1667,59.5 24.5,59.5C 24.5,52.5 24.5,45.5 24.5,38.5C 17.5,38.5 10.5,38.5 3.5,38.5C 3.5,33.8333 3.5,29.1667 3.5,24.5C 10.5,24.5 17.5,24.5 24.5,24.5C 24.5,17.5 24.5,10.5 24.5,3.5 Z"/></g>
</svg>
