<?xml version="1.0" encoding="UTF-8"?>
<!DOCTYPE svg PUBLIC "-//W3C//DTD SVG 1.1//EN" "http://www.w3.org/Graphics/SVG/1.1/DTD/svg11.dtd">
<svg xmlns="http://www.w3.org/2000/svg" version="1.1" width="100px" height="100px" style="shape-rendering:geometricPrecision; text-rendering:geometricPrecision; image-rendering:optimizeQuality; fill-rule:evenodd; clip-rule:evenodd" xmlns:xlink="http://www.w3.org/1999/xlink">
<g><path style="opacity:0.837" fill="#40a46b" d="M 28.5,8.5 C 33.5111,8.33407 38.5111,8.50074 43.5,9C 45.286,9.78451 46.786,10.9512 48,12.5C 48.9895,16.444 48.4895,20.1106 46.5,23.5C 47.4318,25.7954 48.2652,28.1287 49,30.5C 50.0458,28.9095 51.2125,27.4095 52.5,26C 50.3914,15.4614 54.7248,11.7947 65.5,15C 68.6978,15.8485 71.5311,17.3485 74,19.5C 72.2191,25.0036 69.0524,29.8369 64.5,34C 59.788,35.4432 55.9547,34.2765 53,30.5C 51.8436,34.4183 51.3436,38.4183 51.5,42.5C 60.8333,42.5 70.1667,42.5 79.5,42.5C 79.5,46.8333 79.5,51.1667 79.5,55.5C 78.1667,55.5 76.8333,55.5 75.5,55.5C 75.0601,65.3589 73.5601,75.0256 71,84.5C 70.5,85 70,85.5 69.5,86C 56.1667,86.6667 42.8333,86.6667 29.5,86C 27.396,83.9576 26.2293,81.4576 26,78.5C 24.919,70.853 24.0857,63.1863 23.5,55.5C 22.1667,55.5 20.8333,55.5 19.5,55.5C 19.5,51.1667 19.5,46.8333 19.5,42.5C 28.8333,42.5 38.1667,42.5 47.5,42.5C 47.7607,37.5451 46.7607,32.8784 44.5,28.5C 38.6189,32.8246 33.1189,32.4912 28,27.5C 26.1667,22.6667 24.3333,17.8333 22.5,13C 23.9726,10.767 25.9726,9.26705 28.5,8.5 Z M 29.5,11.5 C 34.6278,11.1115 39.6278,11.6115 44.5,13C 45.8302,15.8773 45.6636,18.7107 44,21.5C 43.3333,20.8333 42.6667,20.1667 42,19.5C 42.0464,17.6874 41.8797,16.0207 41.5,14.5C 40.2011,15.09 39.3678,16.09 39,17.5C 35.4413,15.8218 32.2746,13.8218 29.5,11.5 Z M 33.5,18.5 C 36.8411,18.6559 39.6745,19.9892 42,22.5C 41.3749,28.1307 38.2082,29.964 32.5,28C 29.927,23.9554 27.927,19.6221 26.5,15C 29.6082,14.7507 31.9416,15.9173 33.5,18.5 Z M 55.5,17.5 C 60.1209,16.9927 64.4542,17.826 68.5,20C 66.1929,20.7786 64.1929,20.2786 62.5,18.5C 60.3131,20.8495 57.8131,22.8495 55,24.5C 54.2967,22.0709 54.4634,19.7375 55.5,17.5 Z M 63.5,22.5 C 65.5273,22.3379 67.5273,22.5045 69.5,23C 67.5,25.6667 65.5,28.3333 63.5,31C 59.2367,32.539 56.5701,31.2057 55.5,27C 58.1348,23.7178 60.1348,24.2178 61.5,28.5C 62.452,27.467 62.452,26.3004 61.5,25C 62.0556,23.9889 62.7222,23.1556 63.5,22.5 Z M 22.5,44.5 C 40.5031,44.3334 58.5031,44.5001 76.5,45C 77.8333,47.6667 77.8333,50.3333 76.5,53C 58.5,53.6667 40.5,53.6667 22.5,53C 21.2138,50.1684 21.2138,47.3351 22.5,44.5 Z M 26.5,54.5 C 41.8333,54.5 57.1667,54.5 72.5,54.5C 71.9074,63.5739 70.7408,72.5739 69,81.5C 68.0975,82.7014 66.9308,83.5348 65.5,84C 54.8333,84.6667 44.1667,84.6667 33.5,84C 32.0692,83.5348 30.9025,82.7014 30,81.5C 28.2592,72.5739 27.0926,63.5739 26.5,54.5 Z"/></g>
<g><path style="opacity:0.8" fill="#3fa36b" d="M 33.5,18.5 C 33.3605,20.337 32.6939,20.6704 31.5,19.5C 31.9569,18.7025 32.6236,18.3691 33.5,18.5 Z"/></g>
</svg>
